# xmcd
#
# Track frame offsets: 
#        150
#        34275
#        79930
#        124332
#        157782
#        186505
#
# Disc length: 2946 seconds
#
# Revision: 5
# Processed by: cddbd v1.5.2PL0 Copyright (c) Steve Scherf et al.
# Submitted via: ExactAudioCopy v0.99pb4
#
DISCID=4b0b8006
DTITLE=Wang Xu-dong - Acupuncture for Mind
DYEAR=2001
DGENRE=New Age
TTITLE0=Spirit of Heaven and Earth
TTITLE1=Calming Your Mind
TTITLE2=Moving of Chi
TTITLE3=Inspirations between Us
TTITLE4=Breaths of Cells
TTITLE5=Heart of Balance
EXTD=
EXTT0=
EXTT1=
EXTT2=
EXTT3=
EXTT4=
EXTT5=
PLAYORDER=
